<svg width="16" height="16" viewBox="0 0 16 16" fill="none" xmlns="http://www.w3.org/2000/svg">
<mask id="mask0_12_244" style="mask-type:alpha" maskUnits="userSpaceOnUse" x="0" y="0" width="16" height="16">
<path d="M11.55 8.8C11.4041 8.8 11.2642 8.85795 11.1611 8.96109C11.0579 9.06424 11 9.20413 11 9.35C11 9.49587 11.0579 9.63576 11.1611 9.73891C11.2642 9.84205 11.4041 9.9 11.55 9.9H12.65C12.7959 9.9 12.9358 9.84205 13.0389 9.73891C13.1421 9.63576 13.2 9.49587 13.2 9.35C13.2 9.20413 13.1421 9.06424 13.0389 8.96109C12.9358 8.85795 12.7959 8.8 12.65 8.8H11.55ZM0 1.65C0 1.21239 0.173839 0.792709 0.483274 0.483274C0.792709 0.173839 1.21239 0 1.65 0H12.1C12.6835 0 13.2431 0.231785 13.6556 0.644365C14.0682 1.05694 14.3 1.61652 14.3 2.2V2.4948C14.6344 2.68789 14.9122 2.9656 15.1052 3.30003C15.2983 3.63446 15.4 4.01383 15.4 4.4V13.2C15.4 13.7835 15.1682 14.3431 14.7556 14.7556C14.3431 15.1682 13.7835 15.4 13.2 15.4H2.75C2.02065 15.4 1.32118 15.1103 0.805456 14.5945C0.289731 14.0788 0 13.3793 0 12.65V1.65ZM12.1 1.1H1.65C1.50413 1.1 1.36424 1.15795 1.26109 1.26109C1.15795 1.36424 1.1 1.50413 1.1 1.65C1.1 1.79587 1.15795 1.93576 1.26109 2.03891C1.36424 2.14205 1.50413 2.2 1.65 2.2H13.2C13.2 1.90826 13.0841 1.62847 12.8778 1.42218C12.6715 1.21589 12.3917 1.1 12.1 1.1ZM1.65 3.3C1.4564 3.29927 1.27307 3.2681 1.1 3.2065V12.65C1.1 13.0876 1.27384 13.5073 1.58327 13.8167C1.89271 14.1262 2.31239 14.3 2.75 14.3H13.2C13.4917 14.3 13.7715 14.1841 13.9778 13.9778C14.1841 13.7715 14.3 13.4917 14.3 13.2V4.4C14.3 4.10826 14.1841 3.82847 13.9778 3.62218C13.7715 3.41589 13.4917 3.3 13.2 3.3H1.65Z" fill="white"/>
</mask>
<g mask="url(#mask0_12_244)">
<rect x="-7" y="-6" width="31" height="27" fill="white" fill-opacity="0.3"/>
</g>
</svg>
