<svg width="193" height="193" viewBox="0 0 193 193" fill="none" xmlns="http://www.w3.org/2000/svg">
<circle opacity="0.1" cx="96.5" cy="96.5" r="96.5" fill="#ACACAC"/>
<circle opacity="0.1" cx="96.5" cy="96.5" r="76.5" fill="#ACACAC"/>
<circle opacity="0.1" cx="96.5" cy="96.5" r="55.5" fill="#ACACAC"/>
<path d="M96.626 113.812C96.258 114.025 95.8416 114.154 95.4109 114.175L81.5318 114.847C77.5926 115.037 74.204 114.651 71.1686 113.672C64.527 111.534 58.9536 107.079 55.4789 101.12L44.0349 81.5106C42.7136 79.2478 43.0098 76.3576 44.7638 74.3171L60.4777 56.0915C61.4051 54.9994 62.7029 54.2394 64.1212 53.9524L87.6406 49.1266C90.2713 48.5829 92.928 49.742 94.2446 52.0037L105.697 71.6273C109.17 77.5759 110.318 84.6278 108.932 91.4843C108.296 94.6296 106.971 97.7829 104.885 101.125L97.5323 112.926C97.3053 113.294 96.9922 113.595 96.626 113.812Z" fill="#0E83E4"/>
<g filter="url(#filter0_f_268_12329)">
<path d="M90.4884 102.128C90.2389 102.273 89.9606 102.368 89.677 102.396L80.5379 103.328C77.944 103.592 75.7331 103.482 73.7761 102.995C69.494 101.931 65.9994 99.4052 63.9387 95.8783L57.1511 84.2727C56.3674 82.9334 56.6691 81.1487 57.8966 79.831L68.8919 68.0588C69.5414 67.3539 70.4218 66.8389 71.3639 66.6098L86.9877 62.7688C88.7354 62.3367 90.437 62.9487 91.2177 64.2874L98.0103 75.9016C100.07 79.4223 100.562 83.7069 99.3981 87.9664C98.8637 89.9204 97.8764 91.905 96.3824 94.034L91.1164 101.551C90.9537 101.785 90.7369 101.982 90.4884 102.128Z" fill="#0E83E4"/>
</g>
<foreignObject x="46.6588" y="32.4351" width="131.455" height="140.726"><div xmlns="http://www.w3.org/1999/xhtml" style="backdrop-filter:blur(12px);clip-path:url(#bgblur_0_268_12329_clip_path);height:100%;width:100%"></div></foreignObject><g data-figma-bg-blur-radius="24">
<mask id="path-6-outside-1_268_12329" maskUnits="userSpaceOnUse" x="64.2688" y="50.483" width="93.2532" height="105.163" fill="black">
<rect fill="white" x="64.2688" y="50.483" width="93.2532" height="105.163"/>
<path d="M104.216 148.123C103.657 148.036 103.118 147.821 102.654 147.481L87.6953 136.531C83.4511 133.421 80.2555 130.174 77.9179 126.605C72.8009 118.8 70.7151 109.474 72.0542 100.343L76.4504 70.2869C76.9571 66.8179 79.6624 64.0528 83.1752 63.3975L114.601 57.5847C116.47 57.2245 118.447 57.5215 120.157 58.4131L148.563 73.1265C151.744 74.7681 153.539 78.2073 153.028 81.6711L148.628 111.749C147.296 120.868 142.636 129.185 135.509 135.172C132.24 137.918 128.248 140.093 123.311 141.827L105.891 147.96C105.35 148.153 104.775 148.205 104.216 148.123Z"/>
</mask>
<path d="M104.216 148.123C103.657 148.036 103.118 147.821 102.654 147.481L87.6953 136.531C83.4511 133.421 80.2555 130.174 77.9179 126.605C72.8009 118.8 70.7151 109.474 72.0542 100.343L76.4504 70.2869C76.9571 66.8179 79.6624 64.0528 83.1752 63.3975L114.601 57.5847C116.47 57.2245 118.447 57.5215 120.157 58.4131L148.563 73.1265C151.744 74.7681 153.539 78.2073 153.028 81.6711L148.628 111.749C147.296 120.868 142.636 129.185 135.509 135.172C132.24 137.918 128.248 140.093 123.311 141.827L105.891 147.96C105.35 148.153 104.775 148.205 104.216 148.123Z" fill="#0E83E4"/>
<path d="M104.065 149.111C104.611 149.196 105.121 148.822 105.204 148.276C105.287 147.73 104.913 147.219 104.367 147.134L104.065 149.111ZM102.654 147.481L103.243 146.675L103.243 146.674L102.654 147.481ZM87.6953 136.531L87.1057 137.337L87.1061 137.338L87.6953 136.531ZM77.9179 126.605L78.7537 126.058L78.7535 126.057L77.9179 126.605ZM72.0542 100.343L73.0433 100.49L73.0434 100.49L72.0542 100.343ZM76.4504 70.2869L77.4395 70.4336L77.4396 70.4334L76.4504 70.2869ZM83.1752 63.3975L82.9917 62.4139L82.9902 62.4142L83.1752 63.3975ZM114.601 57.5847L114.785 58.5684L114.792 58.567L114.601 57.5847ZM120.157 58.4131L119.696 59.2999L119.698 59.3012L120.157 58.4131ZM148.563 73.1265L148.105 74.0146L148.106 74.0153L148.563 73.1265ZM153.028 81.6711L152.039 81.5233L152.039 81.5244L153.028 81.6711ZM148.628 111.749L147.639 111.603L147.639 111.603L148.628 111.749ZM135.509 135.172L136.153 135.939L136.153 135.939L135.509 135.172ZM123.311 141.827L122.978 140.883L122.977 140.883L123.311 141.827ZM105.891 147.96L105.558 147.016L105.553 147.018L105.891 147.96ZM104.359 147.133C103.812 147.053 103.305 147.431 103.226 147.978C103.147 148.524 103.526 149.032 104.073 149.113L104.359 147.133ZM104.216 148.123L104.367 147.134C103.959 147.071 103.572 146.915 103.243 146.675L102.654 147.481L102.065 148.288C102.664 148.728 103.355 149.002 104.065 149.111L104.216 148.123ZM102.654 147.481L103.243 146.674L88.2846 135.724L87.6953 136.531L87.1061 137.338L102.065 148.288L102.654 147.481ZM87.6953 136.531L88.285 135.724C84.1163 132.67 81.0123 129.506 78.7537 126.058L77.9179 126.605L77.0821 127.152C79.4987 130.841 82.786 134.172 87.1057 137.337L87.6953 136.531ZM77.9179 126.605L78.7535 126.057C73.7691 118.454 71.7402 109.376 73.0433 100.49L72.0542 100.343L71.0651 100.196C69.6899 109.573 71.8326 119.145 77.0823 127.152L77.9179 126.605ZM72.0542 100.343L73.0434 100.49L77.4395 70.4336L76.4504 70.2869L75.4612 70.1402L71.065 100.196L72.0542 100.343ZM76.4504 70.2869L77.4396 70.4334C77.8826 67.4 80.2537 64.9604 83.3603 64.3809L83.1752 63.3975L82.9902 62.4142C79.0711 63.1452 76.0315 66.2358 75.4612 70.1404L76.4504 70.2869ZM83.1752 63.3975L83.3588 64.3812L114.785 58.5684L114.601 57.5847L114.418 56.6011L82.9917 62.4139L83.1752 63.3975ZM114.601 57.5847L114.792 58.567C116.435 58.2503 118.183 58.5109 119.696 59.2999L120.157 58.4131L120.617 57.5262C118.711 56.5321 116.504 56.1987 114.41 56.6025L114.601 57.5847ZM120.157 58.4131L119.698 59.3012L148.105 74.0146L148.563 73.1265L149.021 72.2383L120.615 57.5249L120.157 58.4131ZM148.563 73.1265L148.106 74.0153C150.917 75.4659 152.485 78.4945 152.039 81.5233L153.028 81.6711L154.017 81.8189C154.592 77.9201 152.571 74.0703 149.02 72.2377L148.563 73.1265ZM153.028 81.6711L152.039 81.5244L147.639 111.603L148.628 111.749L149.618 111.896L154.017 81.8178L153.028 81.6711ZM148.628 111.749L147.639 111.603C146.343 120.476 141.807 128.574 134.866 134.405L135.509 135.172L136.153 135.939C143.464 129.797 148.249 121.26 149.618 111.896L148.628 111.749ZM135.509 135.172L134.866 134.405C131.707 137.058 127.827 139.18 122.978 140.883L123.311 141.827L123.643 142.771C128.669 141.006 132.773 138.778 136.153 135.939L135.509 135.172ZM123.311 141.827L122.977 140.883L105.558 147.016L105.891 147.96L106.225 148.904L123.644 142.771L123.311 141.827ZM105.891 147.96L105.553 147.018C105.171 147.154 104.761 147.192 104.359 147.133L104.216 148.123L104.073 149.113C104.789 149.218 105.53 149.152 106.229 148.902L105.891 147.96Z" fill="#0E83E4" mask="url(#path-6-outside-1_268_12329)"/>
</g>
<foreignObject x="80.7349" y="76.4688" width="64.5029" height="51.4062"><div xmlns="http://www.w3.org/1999/xhtml" style="backdrop-filter:blur(7.5px);clip-path:url(#bgblur_1_268_12329_clip_path);height:100%;width:100%"></div></foreignObject><g filter="url(#filter2_d_268_12329)" data-figma-bg-blur-radius="15">
<path d="M106.063 112.836C105.19 112.705 104.367 112.255 103.793 111.504L96.4211 101.825C95.2839 100.323 95.5915 98.2179 97.1122 97.1182C98.6336 96.0142 100.793 96.3348 101.935 97.8332L107.24 104.794L124.725 92.1251C126.251 91.0217 128.41 91.3424 129.548 92.84C130.69 94.3428 130.382 96.4521 128.862 97.5473L108.616 112.218C107.853 112.772 106.936 112.966 106.063 112.836Z" fill="url(#paint0_linear_268_12329)"/>
<path d="M124.784 92.2064C126.266 91.1349 128.364 91.4462 129.469 92.9C130.542 94.3128 130.295 96.2766 128.938 97.3635L128.803 97.4661L108.558 112.137L108.557 112.137C107.816 112.675 106.926 112.864 106.078 112.737C105.229 112.61 104.429 112.173 103.873 111.443L96.5001 101.764C95.3973 100.306 95.696 98.2658 97.1707 97.1993C98.6482 96.1272 100.746 96.4389 101.856 97.8941L107.16 104.855L107.22 104.932L107.3 104.876L124.784 92.2064Z" stroke="url(#paint1_linear_268_12329)" stroke-opacity="0.5" stroke-width="0.2"/>
</g>
<defs>
<filter id="filter0_f_268_12329" x="40.7189" y="46.6318" width="75.2968" height="72.8359" filterUnits="userSpaceOnUse" color-interpolation-filters="sRGB">
<feFlood flood-opacity="0" result="BackgroundImageFix"/>
<feBlend mode="normal" in="SourceGraphic" in2="BackgroundImageFix" result="shape"/>
<feGaussianBlur stdDeviation="8" result="effect1_foregroundBlur_268_12329"/>
</filter>
<clipPath id="bgblur_0_268_12329_clip_path" transform="translate(-46.6588 -32.4351)"><path d="M104.216 148.123C103.657 148.036 103.118 147.821 102.654 147.481L87.6953 136.531C83.4511 133.421 80.2555 130.174 77.9179 126.605C72.8009 118.8 70.7151 109.474 72.0542 100.343L76.4504 70.2869C76.9571 66.8179 79.6624 64.0528 83.1752 63.3975L114.601 57.5847C116.47 57.2245 118.447 57.5215 120.157 58.4131L148.563 73.1265C151.744 74.7681 153.539 78.2073 153.028 81.6711L148.628 111.749C147.296 120.868 142.636 129.185 135.509 135.172C132.24 137.918 128.248 140.093 123.311 141.827L105.891 147.96C105.35 148.153 104.775 148.205 104.216 148.123Z"/>
</clipPath><filter id="filter2_d_268_12329" x="80.7349" y="76.4688" width="64.5029" height="51.4062" filterUnits="userSpaceOnUse" color-interpolation-filters="sRGB">
<feFlood flood-opacity="0" result="BackgroundImageFix"/>
<feColorMatrix in="SourceAlpha" type="matrix" values="0 0 0 0 0 0 0 0 0 0 0 0 0 0 0 0 0 0 127 0" result="hardAlpha"/>
<feOffset dx="5" dy="5"/>
<feGaussianBlur stdDeviation="5"/>
<feColorMatrix type="matrix" values="0 0 0 0 1 0 0 0 0 1 0 0 0 0 1 0 0 0 0.5 0"/>
<feBlend mode="normal" in2="BackgroundImageFix" result="effect1_dropShadow_268_12329"/>
<feBlend mode="normal" in="SourceGraphic" in2="effect1_dropShadow_268_12329" result="shape"/>
</filter>
<clipPath id="bgblur_1_268_12329_clip_path" transform="translate(-80.7349 -76.4688)"><path d="M106.063 112.836C105.19 112.705 104.367 112.255 103.793 111.504L96.4211 101.825C95.2839 100.323 95.5915 98.2179 97.1122 97.1182C98.6336 96.0142 100.793 96.3348 101.935 97.8332L107.24 104.794L124.725 92.1251C126.251 91.0217 128.41 91.3424 129.548 92.84C130.69 94.3428 130.382 96.4521 128.862 97.5473L108.616 112.218C107.853 112.772 106.936 112.966 106.063 112.836Z"/>
</clipPath><linearGradient id="paint0_linear_268_12329" x1="127.703" y1="96.017" x2="90.6688" y2="92.0463" gradientUnits="userSpaceOnUse">
<stop stop-color="white"/>
<stop offset="1" stop-color="white" stop-opacity="0.2"/>
</linearGradient>
<linearGradient id="paint1_linear_268_12329" x1="99.9915" y1="95.5386" x2="128.027" y2="100.039" gradientUnits="userSpaceOnUse">
<stop stop-color="white"/>
<stop offset="1" stop-color="white" stop-opacity="0"/>
</linearGradient>
</defs>
</svg>
